# xmcd CD database file
#
# Track frame offsets:
#	150
#	22242
#	51967
#	73992
#	96042
#
# Disc length: 1573 seconds
#
# Revision: 0
# Processed by: cddbd v1.5PL3 Copyright (c) Steve Scherf et al.
# Submitted via: CDex 1.51
#
DISCID=46062305
DTITLE=みとともみ - ら・ら・ら
DYEAR=1998
DGENRE=JPop
TTITLE0=ら・ら・ら
TTITLE1=ら・ら・ら - Long edit-
TTITLE2=ら・ら・ら - Acoustic conga ver. -
TTITLE3=ら・ら・ら - Acoustic tabura ver. -
TTITLE4=ら・ら・ら - Instrumental -
EXTD=YEAR: 1998
EXTT0=
EXTT1=
EXTT2=
EXTT3=
EXTT4=
PLAYORDER=
